<svg xmlns="http://www.w3.org/2000/svg" width="1126.2" height="855" viewBox="0 0 1126.194 855">
    <path
        d="M 544.9 755.9 C 302.5 737.5 13.4 549.7 28.1 356.3 S 322.8 -17.1 565.2 1.3 S 947.1 381.2 932.4 574.6 s -145.1 199.8 -387.5 181.4 Z"
        fill="#f2f2f2" />
    <ellipse cx="565.2" cy="756" rx="506" ry="31" fill="#3f3d56" />
    <ellipse cx="565.2" cy="755.5" rx="431" ry="20.5" opacity=".1" />
    <ellipse cx="212.2" cy="836.5" rx="212.2" ry="18.5" fill="#3f3d56" />
    <ellipse cx="212.2" cy="836.2" rx="180.7" ry="12.2" opacity=".1" />
    <path fill="#3f3d56" d="M 196.2 162 h 752 v 590 h -752 z" />
    <path
        d="M 563.6 242.6 H 378.1 a 2.3 2.3 0 1 1 0 -4.5 h 185.5 a 2.3 2.3 0 0 1 0 4.5 Z m 203.1 24.8 H 474.9 a 2.3 2.3 0 0 1 0 -4.5 h 291.8 a 2.3 2.3 0 1 1 0 4.5 Z M 564.5 292.2 H 379 a 2.3 2.3 0 1 1 0 -4.5 h 185.5 a 2.3 2.3 0 1 1 0 4.5 Z m 202.2 0.5 H 581.2 a 2.3 2.3 0 0 1 0 -4.5 h 185.5 a 2.3 2.3 0 1 1 0 4.5 Z m -201.7 24.3 H 379.5 a 2.3 2.3 0 0 1 0 -4.5 H 565 a 2.3 2.3 0 1 1 0 4.5 Z m 0.5 24.8 H 379.9 a 2.3 2.3 0 0 1 0 -4.5 h 185.5 a 2.3 2.3 0 1 1 0 4.5 Z m 84.2 -98.6 h -53.1 a 2.3 2.3 0 0 1 0 -4.5 h 53.1 a 2.3 2.3 0 1 1 0 4.5 Z m 0 73.8 h -53.1 a 2.3 2.3 0 0 1 0 -4.5 h 53.1 a 2.3 2.3 0 1 1 0 4.5 Z m 0 24.3 h -53.1 a 2.3 2.3 0 1 1 0 -4.5 h 53.1 a 2.3 2.3 0 1 1 0 4.5 Z m 89.2 0 h -53.1 a 2.3 2.3 0 0 1 0 -4.5 h 53.1 a 2.3 2.3 0 1 1 0 4.5 Z m -308 -73.8 H 377.7 a 2.3 2.3 0 0 1 0 -4.5 h 53.1 a 2.3 2.3 0 0 1 0 4.5 Z M 563.9 607.4 H 378.3 a 2.3 2.3 0 0 1 0 -4.5 h 185.5 a 2.3 2.3 0 0 1 0 4.5 Z m -0.9 49.5 H 377.4 a 2.3 2.3 0 1 1 0 -4.5 h 185.5 a 2.3 2.3 0 0 1 0 4.5 Z m 0.5 24.8 H 377.9 a 2.3 2.3 0 1 1 0 -4.5 h 185.5 a 2.3 2.3 0 1 1 0 4.5 Z m 79.3 -24.3 H 589.5 a 2.3 2.3 0 0 1 0 -4.5 h 53.1 a 2.3 2.3 0 0 1 0 4.5 Z m 0 24.3 H 589.5 a 2.3 2.3 0 0 1 0 -4.5 h 53.1 a 2.3 2.3 0 1 1 0 4.5 Z m 89.2 -24.3 h -53.1 a 2.3 2.3 0 1 1 0 -4.5 h 53.1 a 2.3 2.3 0 0 1 0 4.5 Z m 35.1 -25.2 H 475.2 a 2.3 2.3 0 0 1 0 -4.5 h 291.8 a 2.3 2.3 0 0 1 0 4.5 Z m -335.9 0 h -53.1 a 2.3 2.3 0 0 1 0 -4.5 h 53.1 a 2.3 2.3 0 0 1 0 4.5 Z m 335.9 74.7 H 475.2 a 2.3 2.3 0 1 1 0 -4.5 h 291.8 a 2.3 2.3 0 0 1 0 4.5 Z m -335.9 0 h -53.1 a 2.3 2.3 0 1 1 0 -4.5 h 53.1 a 2.3 2.3 0 1 1 0 4.5 Z"
        fill="#f2f2f2" />
    <path fill="#4d7898"
        d="M 519.1 401.1 l -72 71.1 l 72 71.1 l 16.2 -16.2 l -54.5 -54.5 l 54.9 -54.9 l -16.7 -16.7 z m 106.3 0 l 72 71.1 l -72 71.1 l -16.2 -16.2 l 54.5 -54.5 l -54.9 -54.9 l 16.7 -16.7 z" />
    <circle cx="216.2" cy="177" r="9" fill="#4d7898" />
    <circle cx="240.2" cy="177" r="9" fill="#4d7898" />
    <circle cx="264.2" cy="177" r="9" fill="#4d7898" />
    <path opacity=".1" d="M 196.2 192 h 752 v 3 h -752 z" />
    <path
        d="M 1126.2 607.5 c 0 63.8 -37.9 86 -84.7 86 s -84.7 -22.3 -84.7 -86 s 84.7 -144.9 84.7 -144.9 s 84.7 81.1 84.7 144.9 Z"
        fill="#f2f2f2" />
    <path fill="#3f3d56"
        d="M 1038.4 683.7 l 0.9 -53.4 l 36.1 -66 l -36 57.7 l 0.4 -24 l 24.9 -47.8 l -24.8 41.4 l 0.7 -43.2 l 26.6 -38 l -26.5 31.2 l 0.4 -79.1 l -2.8 104.8 l 0.2 -4.3 l -27.1 -41.5 l 26.6 49.7 l -2.5 48.2 l -0.1 -1.3 l -31.2 -43.6 l 31.1 48.1 l -0.3 6 l -0.1 0.1 l 0 0.5 l -6.4 122.3 h 8.6 l 1 -63.2 l 31 -48 l -31 43.3 z" />
    <path
        d="M 122.6 751.1 a 43.1 43.1 0 0 1 -8.2 3.5 c -5.1 1.4 -10.5 0.9 -15.6 2.1 c -2.1 0.5 -4.4 1.5 -5.1 3.5 c -0.5 1.5 0 3.1 0.6 4.6 c 5.7 16.6 9.1 34.3 18.1 49.3 a 74.6 74.6 0 0 0 14 17 c 2.1 1.9 4.4 3.7 7.1 4 a 7.2 7.2 0 0 0 7.4 -10.2 c -0.8 -1.8 -2.3 -3.2 -3.3 -4.9 a 18.8 18.8 0 0 1 -1.8 -7 c -0.9 -7.1 -1.8 -14.5 0.7 -21.3 c 1.7 -4.5 4.7 -8.4 7.2 -12.4 s 4.6 -8.8 4.1 -13.5 c -0.4 -3.3 -2 -6.2 -3.6 -9.1 c -1.7 -2.8 -5 -10.4 -8.4 -11.3 c -3.5 -1 -10.1 4.2 -13.1 5.7 Z m 92.4 57.4 a 14 14 0 0 1 -0.7 4.7 c -1.1 2.8 -3.7 4.7 -5 7.4 c -1.9 3.7 -1 8.2 0.2 12.1 c 0.8 2.5 1.8 5.1 3.9 6.6 a 12.9 12.9 0 0 0 6 1.9 c 18 2.5 36.4 1.1 54.6 1.6 c 3.3 0.1 6.8 0.2 9.7 -1.4 s 4.7 -5.7 2.7 -8.4 c -1.8 -2.4 -5.3 -2.4 -8.2 -2.5 a 33.9 33.9 0 0 1 -20.9 -8.6 a 15.1 15.1 0 0 1 -2.9 -3.4 a 20.8 20.8 0 0 1 -1.5 -3.5 a 156.8 156.8 0 0 0 -9.1 -20.1 c -1 -1.8 -2.1 -3.7 -3.9 -4.7 a 10.3 10.3 0 0 0 -4.2 -0.9 c -4.5 -0.3 -16.3 -1.8 -19.8 1.7 c -3.2 3.3 -0.7 13.4 -0.7 17.5 Z"
        fill="#2f2e41" />
    <circle cx="243" cy="376.7" r="29" fill="#fbbebe" />
    <path
        d="M 216.8 400.6 c -1.7 4.6 -4.6 8.9 -8.9 11.4 l 40.1 8.2 a 42.5 42.5 0 0 1 -0.6 -17.9 a 10.3 10.3 0 0 0 0.2 -4.4 c -0.8 -2.9 -4 -4.3 -7 -5 c -7.3 -1.7 -13.8 -2.6 -20.6 -5.8 c -2.1 3.6 -1.8 9.3 -3.3 13.4 Z"
        fill="#fbbebe" />
    <path
        d="M 207.6 401.2 a 31.3 31.3 0 0 1 27.3 0.7 c 5.1 2.7 9.4 6.8 13.6 10.8 c 3.9 3.7 8 8 8.2 13.3 c 0.1 2.6 -0.7 5.1 -1.1 7.7 a 25.8 25.8 0 0 0 13.8 26.5 c 3.2 5.3 3.8 11.7 3.9 17.9 c 0.2 23.4 -7.2 47.2 -1.9 70 c 1.2 5.4 3.2 10.6 4.2 16 c 1.4 7 1.3 14.2 2 21.3 a 95.3 95.3 0 0 0 5.1 22.5 c -1.7 2.8 -5.4 3.8 -8.6 3.6 s -6.3 -1.6 -9.2 -3.1 c -14.1 -7.2 -27.1 -16.8 -41.7 -22.9 c -9.7 -4.1 -20 -6.6 -29.4 -11.3 s -18.1 -12.1 -21 -22.2 c -1.2 -4.4 -1.3 -9 -1.4 -13.5 c -0.3 -19.1 -0.6 -38.4 3.6 -57.1 c 3.7 -16.5 10.7 -32.2 12.3 -49 c 0.5 -5.5 0.5 -11.3 3.6 -15.9 c 4.3 -6.4 13.6 -8.1 16.7 -15.2 Z"
        fill="#2f2e41" />
    <path
        d="M 226.5 377.1 c 1.7 -2.2 5 -2.5 7.7 -1.9 s 5.2 2.1 8 2.6 a 4.7 4.7 0 0 0 3.7 -0.5 a 5.4 5.4 0 0 0 1.6 -3.6 a 68.2 68.2 0 0 0 0.7 -17.4 a 5.1 5.1 0 0 1 0.2 -2.4 c 0.7 -1.6 2.8 -2 4.5 -2.6 a 13.3 13.3 0 0 0 9 -13.6 a 5.4 5.4 0 0 0 -1.7 -3.7 c -1.2 -1 -2.8 -1 -4.3 -1 q -11.7 -0.1 -23.4 0 c -2.9 0 -5.9 0.1 -8.4 1.5 c -1.8 1.1 -3.2 2.8 -4.9 4.1 c -4.3 3.5 -10.2 4.2 -15.4 6 a 15.3 15.3 0 0 0 -6.8 4 c -1.8 2 -2.6 5 -1.5 7.4 a 26.3 26.3 0 0 0 1.9 2.9 c 3.1 5 1 11.4 1.5 17.2 c 0.6 7.3 11.4 19.1 18.7 20.8 c 11.8 2.8 5 -15.1 8.9 -19.9 Z m -16.4 319.6 c 0.7 5.3 1.7 10.7 1.4 16 c -0.4 7.5 -3.1 14.7 -3.6 22.2 c -0.4 5.6 0.5 11.2 -0.3 16.8 c -0.5 3.6 -1.7 7 -2.4 10.5 a 43.4 43.4 0 0 0 7 33.3 a 5.4 5.4 0 0 0 2 2 a 5.7 5.7 0 0 0 2.5 0.3 a 179.9 179.9 0 0 0 25.2 -2.3 a 2.4 2.4 0 0 0 1.6 -0.7 a 2.3 2.3 0 0 0 0.3 -1 c 1.5 -7.9 -2 -15.9 -2.9 -23.9 c -1 -8.6 1.1 -17.2 3.1 -25.6 a 113.5 113.5 0 0 1 3.5 -12.2 c 1 -2.7 2.2 -5.3 3 -8.1 a 61.5 61.5 0 0 0 2.2 -13.2 q 0.9 -10.6 0.9 -21.2 a 89 89 0 0 0 -1.7 -20 c -1.9 -8.3 -5.7 -16.1 -9.5 -23.7 a 15 15 0 0 0 -5.6 2.7 a 125.4 125.4 0 0 1 -15.3 8.5 c -3.6 1.7 -10.5 2.8 -12.8 6.3 c -2.2 3.4 -0.8 10.3 -0.6 14.1 q 0.4 9.7 1.8 19.3 Z"
        fill="#2f2e41" />
    <path
        d="M 210.1 696.7 c 0.7 5.3 1.7 10.7 1.4 16 c -0.4 7.5 -3.1 14.7 -3.6 22.2 c -0.4 5.6 0.5 11.2 -0.3 16.8 c -0.5 3.6 -1.7 7 -2.4 10.5 a 43.4 43.4 0 0 0 7 33.3 a 5.4 5.4 0 0 0 2 2 a 5.7 5.7 0 0 0 2.5 0.3 a 179.9 179.9 0 0 0 25.2 -2.3 a 2.4 2.4 0 0 0 1.6 -0.7 a 2.3 2.3 0 0 0 0.3 -1 c 1.5 -7.9 -2 -15.9 -2.9 -23.9 c -1 -8.6 1.1 -17.2 3.1 -25.6 a 113.5 113.5 0 0 1 3.5 -12.2 c 1 -2.7 2.2 -5.3 3 -8.1 a 61.5 61.5 0 0 0 2.2 -13.2 q 0.9 -10.6 0.9 -21.2 a 89 89 0 0 0 -1.7 -20 c -1.9 -8.3 -5.7 -16.1 -9.5 -23.7 a 15 15 0 0 0 -5.6 2.7 a 125.4 125.4 0 0 1 -15.3 8.5 c -3.6 1.7 -10.5 2.8 -12.8 6.3 c -2.2 3.4 -0.8 10.3 -0.6 14.1 q 0.4 9.7 1.8 19.3 Z"
        opacity=".1" />
    <path
        d="M 171 583 c -3.8 10.4 1.8 21.6 6.7 31.5 c 12.1 24.4 20.5 50.4 28.9 76.3 c 0.6 1.9 1.3 4.1 0.6 6 a 7.8 7.8 0 0 1 -2.8 3.3 c -5.8 4.4 -13.1 5.9 -20 8.2 a 90.2 90.2 0 0 0 -18.9 8.9 c -5 3.1 -9.6 6.6 -14.3 10.2 l -14.8 11.3 a 9.9 9.9 0 0 0 -2.5 2.4 c -1.4 2.2 -0.8 5.2 -0.1 7.7 a 131.4 131.4 0 0 0 7.3 19.8 a 6.9 6.9 0 0 0 2.6 3.4 c 2.3 1.2 5.1 -0.4 6.9 -2.3 s 3.3 -4.4 5.8 -5.2 c 2.5 -0.8 5.2 0.2 7.8 -0.2 c 4.2 -0.6 7 -4.5 10 -7.4 c 12.4 -12.1 33 -11.3 46.6 -22 a 59.2 59.2 0 0 1 6.2 -4.9 c 2.3 -1.4 4.9 -2.1 7.3 -3.3 c 7.3 -3.7 11.8 -11.2 14.3 -19 s 3.1 -15.9 4.9 -23.9 c 0.9 -4.1 2.1 -8.2 2.5 -12.3 a 66.1 66.1 0 0 0 -0.3 -11.7 l -4.9 -60.7 c -0.4 -4.9 -0.8 -9.9 -1.6 -14.8 c -14.6 0.5 -29.1 1.1 -43.7 1.3 c -11.6 0.1 -23.4 0.9 -34.4 -2.7 Z"
        fill="#2f2e41" />
    <path
        d="M 165.6 597.2 c 2 3.2 6.8 3.1 10.1 1.4 s 5.9 -4.7 9.2 -6.4 c 4.5 -2.3 9.7 -2.2 14.8 -2.1 c 8 0.2 16 0.5 23.7 2.6 c 7.9 2.3 15.6 6.6 23.8 5.7 c 1.4 -0.1 3 -0.6 3.8 -1.8 a 5.5 5.5 0 0 0 0.6 -2.8 l 0.3 -7.2 a 6.5 6.5 0 0 0 -0.6 -3.6 a 6.1 6.1 0 0 0 -2.7 -2.1 c -11.7 -5.6 -25 -6.7 -37.9 -7.1 q -9.9 -0.3 -19.8 -0.3 c -5.6 0 -12.3 -0.8 -17.7 0.7 c -7.3 2 -11.3 17 -7.6 22.9 Z"
        fill="#2f2e41" />
    <path
        d="M 238.8 409.7 c -15.3 -0.1 -29.1 -10.2 -44.4 -10.5 a 11.5 11.5 0 0 0 -5.4 0.9 c -2.1 1.1 -3.5 3.1 -5.1 4.9 c -4.5 4.9 -11.1 7.5 -15.7 12.3 c -4.4 4.5 -6.8 11.2 -5.1 17.2 s 8.2 10.6 14.3 9.2 a 36.8 36.8 0 0 1 14.3 -19.5 a 72.9 72.9 0 0 1 11.2 -5.9 c 6.9 -3.1 14.5 -6.3 21.7 -4 a 30.6 30.6 0 0 1 7.4 4 l 12 8 c -1.4 -5.5 -2.6 -11.7 -5.2 -16.7 Z"
        fill="#4d7898" />
    <path
        d="M 175.7 438.4 c -2 2.5 0.9 6.2 0.4 9.4 c -0.3 2.1 -2.1 3.8 -2.8 5.8 c -0.8 2.1 -0.4 4.4 -0.6 6.6 a 28.5 28.5 0 0 1 -1.3 4.7 a 85 85 0 0 0 -2.7 14 l -2.7 20 a 75.7 75.7 0 0 0 -0.8 9.1 a 27.1 27.1 0 0 1 -0.5 6.8 c -0.6 2.2 -1.9 4.1 -2.8 6.2 s -1.3 4.6 -0.1 6.5 c -4 3.3 -5.2 9.9 -2.4 14.2 a 7.9 7.9 0 0 1 1.2 2.3 a 5.8 5.8 0 0 1 -0.5 3.3 l -2.7 7.2 c -0.7 1.8 -0.9 4.7 1 5.1 a 17 17 0 0 0 -3.7 5.8 a 6.9 6.9 0 0 0 1 6.5 a 8.3 8.3 0 0 1 1.7 2.1 a 5.5 5.5 0 0 1 -0.2 3.2 a 11.9 11.9 0 0 0 1.5 9.3 a 8.4 8.4 0 0 0 8.4 3.6 c 5.4 -1.2 10.3 -3.1 15.7 -2.1 c 11.7 2.2 23.5 4.3 34.9 8 c 13 4.1 25.6 10.2 39.1 11.5 a 3.8 3.8 0 0 0 2.6 -0.4 a 3.9 3.9 0 0 0 1.2 -2.5 l 4.2 -19.7 a 202.4 202.4 0 0 0 3.9 -22 c 0.5 -4.8 0.6 -9.6 0.8 -14.4 l 1.1 -38.2 a 38.2 38.2 0 0 0 -2.2 -16.6 l -6.2 -19.8 c -3.5 -11.3 -11.7 -21.4 -14.6 -32.9 c -1.8 -7.3 -3.2 -15.1 -8.1 -20.8 c -7 -8.1 -19.1 -9.4 -29.8 -8 c -4.8 0.6 -9.6 1.7 -13.8 4.2 c -4.8 2.9 -8.3 7.4 -11.8 11.8 c -2.8 3.6 -5.7 6.6 -8.6 10.2 Z"
        fill="#4d7898" />
    <path
        d="M 200.4 550.8 c 0.9 3.8 2.7 7.3 3.8 11 c 1.9 6.2 1.7 12.9 3.6 19.1 c 0.8 2.6 1.9 5.1 2.5 7.8 c 1.3 6.2 -0.6 12.6 -3 18.5 s -5.3 11.7 -6.1 18 c -0.5 4.4 0.2 9.4 3.7 12.3 c 3.6 3 8.7 2.8 13.3 2.4 a 14 14 0 0 0 4.8 -1 c 3.5 -1.7 5 -5.9 5.9 -9.7 c 2.8 -12.8 2 -26.1 1.2 -39.2 l -2.1 -34.2 c -0.4 -6.6 -0.8 -13.3 -2.9 -19.6 c -0.7 -2.3 -2 -7 -4.1 -8.4 c -2.1 -1.5 -8 -1.5 -10.6 -1.6 c -12.1 -0.6 -12 16.3 -10 24.8 Z"
        fill="#fbbebe" />
    <path
        d="M 213.8 424.4 c -2.5 -1.3 -5.6 -0.7 -8 0.7 a 24.6 24.6 0 0 0 -6 5.8 c -5.3 6.5 -11 14 -10.2 22.4 c 0.3 3.1 1.5 6.1 2.3 9.2 c 3.6 13.4 -0.4 27.5 0.1 41.4 c 0.3 8 2 15.9 3.7 23.7 c 0.4 1.6 0.9 3.4 2.5 4 c 1.2 0.4 2.4 -0.1 3.6 -0.6 a 28.4 28.4 0 0 1 26 3.3 c 2.9 -1.5 1.8 -6.4 1.1 -9.5 c -1.9 -9.5 0.7 -19.2 3.8 -28.3 s 6.9 -18.2 7.4 -27.9 c 0.6 -10.9 -3 -21.6 -6.6 -31.9 c -0.8 -2.3 -1.6 -4.6 -3.4 -6.2 a 13.7 13.7 0 0 0 -5.2 -2.4 c -3.8 -1.1 -7.6 -1.8 -11.1 -3.6 Z"
        fill="#2f2e41" />
</svg>